<?xml version="1.0" standalone="no"?>
<!DOCTYPE svg PUBLIC "-//W3C//DTD SVG 20010904//EN"
 "http://www.w3.org/TR/2001/REC-SVG-20010904/DTD/svg10.dtd">
<svg version="1.0" xmlns="http://www.w3.org/2000/svg"
 width="1087.000000pt" height="1280.000000pt" viewBox="0 0 1087.000000 1280.000000"
 preserveAspectRatio="xMidYMid meet">
<metadata>
Created by potrace 1.15, written by Peter Selinger 2001-2017
</metadata>
<g transform="translate(0.000000,1280.000000) scale(0.100000,-0.100000)"
fill="#9373ec" stroke="none">
<path d="M2620 12767 c1 -29 51 -130 100 -203 62 -90 340 -373 440 -448 114
-84 148 -97 302 -112 144 -14 180 -25 223 -72 14 -15 74 -126 134 -247 60
-121 128 -248 150 -282 l40 -63 -62 -41 c-297 -200 -488 -478 -542 -788 -8
-46 -15 -136 -15 -201 0 -247 64 -452 204 -649 l52 -75 -125 -76 c-126 -77
-305 -201 -437 -304 l-71 -56 -325 328 c-179 180 -367 374 -418 432 -51 58
-166 177 -254 265 -245 243 -411 377 -729 587 -470 311 -753 461 -818 432 -15
-8 3 -26 113 -113 542 -430 804 -666 987 -886 168 -202 319 -417 463 -660 36
-60 102 -173 148 -250 106 -180 197 -300 321 -426 l99 -100 -82 -92 c-342
-388 -641 -851 -846 -1313 -48 -106 -60 -124 -273 -380 -122 -148 -292 -341
-378 -429 -178 -183 -221 -233 -316 -365 -120 -167 -140 -236 -139 -470 1
-127 9 -221 34 -405 38 -282 43 -457 15 -599 -53 -274 -199 -626 -397 -956
-121 -200 -168 -292 -197 -378 -22 -64 -27 -122 -12 -122 38 0 365 332 509
517 342 440 548 849 583 1156 13 121 -3 287 -51 532 -17 83 -30 155 -30 161 0
13 189 158 196 151 2 -2 -2 -64 -10 -138 -80 -728 -6 -1525 209 -2234 l36
-117 -45 -137 c-106 -322 -131 -453 -130 -691 1 -197 3 -214 88 -655 42 -218
60 -380 54 -483 -7 -104 -55 -236 -212 -579 -99 -216 -137 -325 -118 -337 48
-29 499 605 637 895 62 130 67 291 25 679 -24 214 -34 441 -23 534 l8 68 50
-98 c378 -747 945 -1397 1595 -1829 511 -339 1032 -537 1623 -617 212 -29 647
-31 857 -5 601 76 1154 285 1668 631 621 417 1139 1000 1529 1723 71 130 89
157 95 140 14 -50 7 -356 -13 -527 -26 -228 -35 -501 -20 -600 9 -58 24 -98
65 -175 170 -317 546 -845 602 -845 35 0 8 81 -134 395 -173 385 -198 466
-187 605 10 140 24 234 65 450 21 113 46 246 55 295 23 125 31 389 15 511 -14
120 -74 359 -128 510 l-39 111 24 74 c232 729 313 1533 232 2300 -6 59 -10
112 -8 118 5 14 169 -106 169 -123 0 -6 -11 -67 -24 -136 -77 -393 -77 -581 0
-801 107 -307 306 -642 588 -989 123 -151 416 -440 447 -440 14 0 11 51 -7
111 -23 76 -86 197 -204 394 -158 261 -282 536 -353 785 -71 244 -76 391 -26
760 25 188 33 283 33 410 1 235 -19 302 -139 470 -94 131 -137 182 -311 360
-83 85 -242 265 -354 399 -183 220 -206 252 -242 335 -182 422 -448 863 -736
1221 l-64 80 28 20 c243 175 394 323 536 525 25 36 101 160 168 275 384 663
654 976 1260 1466 173 140 334 270 358 288 77 60 11 64 -122 9 -122 -50 -273
-138 -586 -341 -474 -308 -687 -494 -1177 -1027 -83 -91 -303 -316 -487 -500
l-335 -334 -35 29 c-19 17 -84 73 -144 125 -140 122 -314 251 -489 362 -75 48
-141 89 -146 91 -5 1 16 36 47 77 160 212 235 483 214 771 -25 335 -212 647
-518 861 -52 37 -103 73 -114 80 -18 13 -15 19 44 123 35 60 93 173 131 251
120 253 126 257 338 279 156 15 189 28 301 111 89 67 355 334 418 419 54 73
105 169 116 219 7 26 1 23 -64 -37 -109 -101 -424 -308 -578 -380 -60 -28 -72
-30 -263 -38 -213 -10 -268 -18 -328 -49 -79 -40 -131 -134 -131 -236 0 -65
-19 -143 -51 -205 -32 -64 -122 -179 -197 -253 l-51 -49 -123 41 c-219 72
-444 119 -680 143 -144 14 -510 14 -653 0 -286 -28 -602 -103 -826 -195 -11
-5 -42 20 -107 88 -159 167 -208 258 -221 412 -10 109 -24 152 -66 202 -60 71
-133 90 -398 101 l-198 8 -92 46 c-173 87 -469 284 -566 377 -28 27 -51 44
-51 37z"/>
</g>
</svg>
